<svg width="101" height="31" viewBox="0 0 101 31" fill="none" xmlns="http://www.w3.org/2000/svg">
<g clip-path="url(#clip0_1_344)">
<path d="M56.3182 22.2977H60.0421L62.3172 11.1789H65.1098L65.5216 9.11033H62.7826L62.8864 8.64497C63.0413 7.76786 63.3517 6.78305 64.7478 6.78305C65.5762 6.78305 66.3514 6.83471 67.1267 7.19676L67.5409 5.02493C66.6769 4.72007 65.7678 4.56259 64.8516 4.55908C61.8519 4.55908 59.7838 6.3177 59.0076 9.11033H57.7148L57.3011 11.1789H58.5939L56.3182 22.2977Z" fill="#EA1D2C"/>
<path d="M68.1095 19.609C72.5053 19.609 75.5567 15.6264 75.5567 12.3684C75.5567 9.9378 73.3327 8.90329 71.1609 8.90329C66.3499 8.90329 63.7137 13.1982 63.7137 16.1439C63.7137 18.5745 65.9893 19.609 68.1095 19.609ZM79.9018 19.609C84.2976 19.609 87.349 15.6264 87.349 12.3684C87.349 9.9378 85.0734 8.90329 82.9011 8.90329C78.0916 8.90329 75.4544 13.1958 75.4544 16.1439C75.4544 18.5745 77.7817 19.609 79.9018 19.609ZM93.3997 19.4019H97.0714L100.07 4.76819H96.3468L95.4672 9.11234L93.9157 8.95738C90.2957 8.95738 86.986 13.6115 86.986 16.9216C86.986 18.266 87.8631 19.6109 89.3649 19.6109C91.4851 19.6109 92.985 18.5764 93.6043 17.5419H93.8109L93.3997 19.4019ZM81.9177 27.1078C79.0276 29.5025 75.3154 30.6717 71.5746 30.3658C66.6613 30.0554 63.1446 26.2799 62.5243 22.2978H62.7309C63.8687 24.783 66.6097 27.1078 69.9714 27.4694C73.3825 27.8831 77.4703 26.332 79.6938 24.2114L77.2115 22.2978H84.7104L83.0536 30.2625L81.9675 27.1595L81.9177 27.1078Z" fill="#EA1D2C"/>
</g>
<path d="M6.24617 20.2844C6.22747 20.3806 6.18345 20.463 6.11411 20.5317C6.04744 20.5867 5.95811 20.6142 5.84613 20.6142H2.82269C2.72471 20.6142 2.64607 20.5867 2.58676 20.5317C2.54413 20.463 2.53216 20.3806 2.55085 20.2844L5.31516 6.06327C5.33653 5.95335 5.38055 5.87091 5.44722 5.81595C5.52789 5.76099 5.61722 5.73351 5.7152 5.73351H15.8563C15.9683 5.73351 16.0469 5.76099 16.0922 5.81595C16.1375 5.87091 16.1495 5.95335 16.1282 6.06327L15.5913 8.82506C15.5726 8.92124 15.5286 9.00368 15.4593 9.07238C15.3926 9.12734 15.3033 9.15482 15.1913 9.15482H8.40954L7.82863 12.1433H13.6026C13.7145 12.1433 13.7932 12.1708 13.8385 12.2258C13.8838 12.2807 13.8958 12.3632 13.8744 12.4731L13.3376 15.2349C13.3189 15.3311 13.2748 15.4135 13.2055 15.4822C13.1388 15.5372 13.0495 15.5646 12.9375 15.5646H7.1636L6.24617 20.2844ZM20.7143 20.9233C19.2865 20.9233 18.1235 20.6417 17.2252 20.0783C16.3296 19.5012 15.7579 18.6974 15.5103 17.6669C15.4984 17.5845 15.495 17.5295 15.5004 17.502C15.5218 17.3921 15.6091 17.3028 15.7624 17.2341L18.4763 16.0181L18.6523 15.9768C18.7643 15.9768 18.8516 16.0318 18.9142 16.1417C19.16 16.6776 19.4758 17.0692 19.8616 17.3165C20.2642 17.5501 20.7594 17.6669 21.3472 17.6669C21.9771 17.6669 22.4814 17.557 22.8601 17.3371C23.2554 17.1035 23.4891 16.8013 23.5613 16.4303C23.6414 16.0181 23.5248 15.6814 23.2117 15.4204C22.8985 15.1593 22.3686 14.9326 21.6222 14.7402C20.6651 14.4792 19.8477 14.1837 19.1699 13.854C18.4949 13.5105 17.9668 13.0227 17.5857 12.3906C17.2074 11.7449 17.1157 10.9204 17.3106 9.91741C17.4682 9.10673 17.8307 8.35789 18.3982 7.67088C18.9796 6.98387 19.729 6.44113 20.6463 6.04266C21.5803 5.63046 22.6212 5.42435 23.7689 5.42435C25.1687 5.42435 26.2784 5.69229 27.0981 6.22816C27.9317 6.76402 28.4774 7.48539 28.735 8.39224C28.747 8.47468 28.7516 8.52277 28.749 8.53651C28.7303 8.6327 28.6416 8.72888 28.4829 8.82506L25.777 9.99985C25.699 10.0411 25.632 10.0617 25.576 10.0617C25.4781 10.0617 25.4048 10.0067 25.3561 9.8968C25.1283 9.48459 24.8301 9.1823 24.4616 8.98994C24.1097 8.78384 23.6679 8.68079 23.136 8.68079C22.5901 8.68079 22.1501 8.78384 21.8161 8.98994C21.4988 9.1823 21.3094 9.4365 21.2479 9.75252C21.1812 10.096 21.2677 10.3708 21.5076 10.5769C21.7502 10.7693 22.204 10.9548 22.8692 11.1334C23.9302 11.4357 24.8223 11.7792 25.5453 12.1639C26.2711 12.5349 26.8275 13.057 27.2145 13.7303C27.6155 14.4036 27.7172 15.2486 27.5196 16.2654C27.354 17.1173 26.9708 17.9005 26.37 18.615C25.7719 19.3157 24.9835 19.8791 24.0049 20.305C23.0429 20.7172 21.946 20.9233 20.7143 20.9233ZM35.3347 20.3462C35.244 20.5249 35.1007 20.6142 34.9047 20.6142H31.3354C31.1394 20.6142 31.0391 20.518 31.0345 20.3256L30.6074 6.10449L30.6275 6.00144C30.6622 5.82282 30.7775 5.73351 30.9735 5.73351H34.1859C34.3959 5.73351 34.5031 5.82969 34.5077 6.02205L34.5355 15.7089L38.4374 7.73271C38.5281 7.55409 38.6715 7.46478 38.8674 7.46478H41.5969C41.7929 7.46478 41.9015 7.55409 41.9228 7.73271L42.7659 15.7089L46.6435 6.02205C46.7229 5.82969 46.8675 5.73351 47.0775 5.73351H49.975C50.0869 5.73351 50.1643 5.76786 50.2069 5.83656C50.2495 5.90526 50.2462 5.99457 50.1968 6.10449L44.2411 20.3256C44.1617 20.518 44.024 20.6142 43.8281 20.6142H40.2587C40.0628 20.6142 39.9541 20.5249 39.9329 20.3462L39.1146 12.7822L35.3347 20.3462Z" fill="#EA1D2C"/>
<defs>
<clipPath id="clip0_1_344">
<rect width="44.0267" height="26" fill="white" transform="translate(56 4.55908)"/>
</clipPath>
</defs>
</svg>
